<svg height="512" viewBox="0 0 64 64" width="512" xmlns="http://www.w3.org/2000/svg"><g id="Data_Analysis-grow-worldwide-analysis-graph" data-name="Data Analysis-grow-worldwide-analysis-graph"><path d="m8.38 16.09a5.641 5.641 0 0 1 -.29-1.09h-4.04a9.748 9.748 0 0 0 .84 3.1z"/><path d="m5.89 19.83a10.274 10.274 0 0 0 2.28 2.28l2.01-3.49a6.047 6.047 0 0 1 -.8-.8z"/><path d="m8.38 11.91-3.49-2.01a9.748 9.748 0 0 0 -.84 3.1h4.04a5.641 5.641 0 0 1 .29-1.09z"/><path d="m9.02 51h-4.97a9.955 9.955 0 0 0 2.47 5.62 11.736 11.736 0 0 1 2.89-1.7 27.541 27.541 0 0 1 -.39-3.92z"/><path d="m10.18 9.38-2.01-3.49a10.274 10.274 0 0 0 -2.28 2.28l3.49 2.01a6.047 6.047 0 0 1 .8-.8z"/><path d="m9.41 45.08a11.736 11.736 0 0 1 -2.89-1.7 9.955 9.955 0 0 0 -2.47 5.62h4.97a27.541 27.541 0 0 1 .39-3.92z"/><path d="m13 19.91a5.641 5.641 0 0 1 -1.09-.29l-2.01 3.49a9.748 9.748 0 0 0 3.1.84z"/><path d="m16.24 43.74c-.63-2.36-1.54-3.74-2.24-3.74s-1.61 1.38-2.24 3.74a10.468 10.468 0 0 0 2.24.26 10.468 10.468 0 0 0 2.24-.26z"/><path d="m19.91 13h4.04a9.748 9.748 0 0 0 -.84-3.1l-3.49 2.01a5.641 5.641 0 0 1 .29 1.09z"/><path d="m15 19.91v4.04a9.748 9.748 0 0 0 3.1-.84l-2.01-3.49a5.641 5.641 0 0 1 -1.09.29z"/><path d="m22.11 19.83-3.49-2.01a6.047 6.047 0 0 1 -.8.8l2.01 3.49a10.274 10.274 0 0 0 2.28-2.28z"/><path d="m8.02 57.99a9.636 9.636 0 0 0 2.8 1.48 13.146 13.146 0 0 1 -.97-2.56 9.668 9.668 0 0 0 -1.83 1.08z"/><path d="m52 38.06v7.94h7.94a8.994 8.994 0 0 0 -7.94-7.94z"/><circle cx="14" cy="14" r="4"/><path d="m23.95 15h-4.04a5.641 5.641 0 0 1 -.29 1.09l3.49 2.01a9.748 9.748 0 0 0 .84-3.1z"/><path d="m18.1 4.89a9.748 9.748 0 0 0 -3.1-.84v4.04a5.641 5.641 0 0 1 1.09.29z"/><path d="m18.62 10.18 3.49-2.01a10.274 10.274 0 0 0 -2.28-2.28l-2.01 3.49a6.047 6.047 0 0 1 .8.8z"/><path d="m13 8.09v-4.04a9.748 9.748 0 0 0 -3.1.84l2.01 3.49a5.641 5.641 0 0 1 1.09-.29z"/><path d="m31 26h2v12h-2z"/><path d="m23 30h2v8h-2z"/><path d="m46 51v-8.94a9 9 0 1 0 9.94 9.94h-8.94a1 1 0 0 1 -1-1z"/><path d="m18.59 45.08a27.541 27.541 0 0 1 .39 3.92h4.97a9.955 9.955 0 0 0 -2.47-5.62 11.736 11.736 0 0 1 -2.89 1.7z"/><path d="m47 40a1 1 0 0 1 .86.52 17.719 17.719 0 0 0 2.14-8.52 17.946 17.946 0 0 0 -24.05-16.93 12.039 12.039 0 0 1 -10.88 10.88 17.639 17.639 0 0 0 0 12.1 12.031 12.031 0 0 1 10.88 10.89 18.1 18.1 0 0 0 10.16.57 11.018 11.018 0 0 1 10.89-9.51zm-20-1a1 1 0 0 1 -1 1h-4a1 1 0 0 1 -1-1v-10a1 1 0 0 1 1-1h4a1 1 0 0 1 1 1zm8 0a1 1 0 0 1 -1 1h-4a1 1 0 0 1 -1-1v-14a1 1 0 0 1 1-1h4a1 1 0 0 1 1 1zm2 0v-16a1 1 0 0 1 1-1h4a1 1 0 0 1 1 1v16a1 1 0 0 1 -1 1h-4a1 1 0 0 1 -1-1z"/><path d="m39 24h2v14h-2z"/><path d="m19.98 42.01a9.636 9.636 0 0 0 -2.8-1.48 13.146 13.146 0 0 1 .97 2.56 9.668 9.668 0 0 0 1.83-1.08z"/><path d="m14 46a11.731 11.731 0 0 1 -2.66-.31 24.783 24.783 0 0 0 -.32 3.31h5.96a24.783 24.783 0 0 0 -.32-3.31 11.731 11.731 0 0 1 -2.66.31z"/><path d="m11.34 54.31a11.567 11.567 0 0 1 5.32 0 24.783 24.783 0 0 0 .32-3.31h-5.96a24.783 24.783 0 0 0 .32 3.31z"/><path d="m11.76 56.26c.63 2.36 1.54 3.74 2.24 3.74s1.61-1.38 2.24-3.74a10.468 10.468 0 0 0 -2.24-.26 10.468 10.468 0 0 0 -2.24.26z"/><path d="m9.85 43.09a13.146 13.146 0 0 1 .97-2.56 9.636 9.636 0 0 0 -2.8 1.48 9.668 9.668 0 0 0 1.83 1.08z"/><path d="m18.59 54.92a11.736 11.736 0 0 1 2.89 1.7 9.955 9.955 0 0 0 2.47-5.62h-4.97a27.541 27.541 0 0 1 -.39 3.92z"/><path d="m17.18 59.47a9.636 9.636 0 0 0 2.8-1.48 9.668 9.668 0 0 0 -1.83-1.08 13.146 13.146 0 0 1 -.97 2.56z"/><path d="m61 2h-10v2h7.58l-13.17 13.17a15.858 15.858 0 0 1 1.42 1.42l13.17-13.17v7.58h2v-10a1 1 0 0 0 -1-1z"/></g></svg>