<?xml version="1.0" encoding="iso-8859-1"?>
<!-- Generator: Adobe Illustrator 19.0.0, SVG Export Plug-In . SVG Version: 6.00 Build 0)  -->
<svg version="1.1" id="Capa_1" xmlns="http://www.w3.org/2000/svg" xmlns:xlink="http://www.w3.org/1999/xlink" x="0px" y="0px"
	 viewBox="0 0 512 512" style="enable-background:new 0 0 512 512;" xml:space="preserve">
<g>
	<g>
		<path d="M341.512,153.238v189.525c27.991-2.536,50-26.122,50-54.763v-80C391.512,179.359,369.503,155.773,341.512,153.238z"/>
	</g>
</g>
<g>
	<g>
		<path d="M241.512,240h-80c-30.327,0-55,24.673-55,55v80c0,30.327,24.673,55,55,55c30.327,0,55-24.673,55-55v-25h25
			c30.327,0,55-24.673,55-55C296.512,264.673,271.839,240,241.512,240z"/>
	</g>
</g>
<g>
	<g>
		<path d="M143.143,63.218c-15.164-26.264-48.868-35.293-75.131-20.131c-12.723,7.346-21.824,19.206-25.626,33.396
			s-1.851,29.012,5.495,41.735l62.77,108.72C124.842,216.305,142.454,210,161.512,210h66.376L143.143,63.218z"/>
	</g>
</g>
<g>
	<g>
		<path d="M416.512,153c-4.768,0-9.395,0.612-13.81,1.757c11.753,14.582,18.81,33.099,18.81,53.243v80
			c0,20.143-7.057,38.661-18.81,53.243c4.414,1.146,9.042,1.757,13.81,1.757c30.327,0,55-24.673,55-55v-80
			C471.512,177.673,446.839,153,416.512,153z"/>
	</g>
</g>
<g>
	<g>
		<path d="M256.512,0c-30.327,0-55,24.673-55,55v49.315l62.83,108.824c19.393,5.417,36.009,17.54,47.17,33.718V55
			C311.512,24.673,286.839,0,256.512,0z"/>
	</g>
</g>
<g>
	<g>
		<path d="M416.512,373c-14.454,0-28.071-3.636-40-10.027c-11.93,6.391-25.546,10.027-40,10.027
			c-15.407,0-29.856-4.141-42.33-11.337c-13.302,10.532-29.813,17.181-47.808,18.2c-2.525,44.583-39.567,80.08-84.759,80.135
			L181.117,512h255.79l34.605-92.279v-66.99C456.675,365.356,437.475,373,416.512,373z"/>
	</g>
</g>
<g>
</g>
<g>
</g>
<g>
</g>
<g>
</g>
<g>
</g>
<g>
</g>
<g>
</g>
<g>
</g>
<g>
</g>
<g>
</g>
<g>
</g>
<g>
</g>
<g>
</g>
<g>
</g>
<g>
</g>
</svg>
